<svg width="512" height="512" viewBox="0 0 512 512" fill="none" xmlns="http://www.w3.org/2000/svg">
<rect width="512" height="512" fill="white"/>
<rect y="398" width="512" height="114" fill="#F27321" fill-opacity="0.65"/>
<path d="M156.245 420.41H165.555V452.75H156.245V420.41ZM161.775 432.8H174.095V440.43H161.775V432.8ZM122.715 455.34H165.555V473.12H132.095V480.82H122.855V466.4H156.385V462.48H122.715V455.34ZM122.855 477.25H167.445V484.53H122.855V477.25ZM132.235 422.3C142.175 422.3 149.525 428.39 149.525 437C149.525 445.54 142.175 451.7 132.235 451.7C122.365 451.7 114.945 445.54 114.945 437C114.945 428.39 122.365 422.3 132.235 422.3ZM132.235 429.79C127.475 429.79 123.975 432.45 123.975 437C123.975 441.55 127.475 444.28 132.235 444.28C137.065 444.28 140.565 441.55 140.565 437C140.565 432.45 137.065 429.79 132.235 429.79ZM283.763 420.34H293.073V485.37H283.763V420.34ZM242.603 462.69H248.343C259.823 462.69 268.993 462.27 279.283 460.52L280.193 468.01C269.693 469.9 260.173 470.25 248.343 470.25H242.603V462.69ZM242.533 425.87H273.123V450.93H252.053V465.49H242.603V443.58H263.603V433.29H242.533V425.87ZM366.901 426.22H398.051V469.83H366.901V426.22ZM388.951 433.5H376.071V462.48H388.951V433.5ZM408.131 420.34H417.511V485.37H408.131V420.34Z" fill="white"/>
<rect width="165" height="88" rx="30" fill="#F27321"/>
<path d="M68.3039 21.15H74.9539V44.25H68.3039V21.15ZM72.2539 30L81.0539 30V35.45L72.2539 35.45V30ZM44.3539 46.1H74.9539V58.8H51.0539V64.3H44.4539V54H68.4039V51.2H44.3539V46.1ZM44.4539 61.75H76.3039V66.95H44.4539V61.75ZM51.1539 22.5C58.2539 22.5 63.5039 26.85 63.5039 33C63.5039 39.1 58.2539 43.5 51.1539 43.5C44.1039 43.5 38.8039 39.1 38.8039 33C38.8039 26.85 44.1039 22.5 51.1539 22.5ZM51.1539 27.85C47.7539 27.85 45.2539 29.75 45.2539 33C45.2539 36.25 47.7539 38.2 51.1539 38.2C54.6039 38.2 57.1039 36.25 57.1039 33C57.1039 29.75 54.6039 27.85 51.1539 27.85ZM116.3 21.15H123V48.6H116.3V21.15ZM86.9 41.7H90.95C99.95 41.7 105.8 41.55 112.5 40.45L113.25 45.7C106.35 46.9 100.2 47.1 90.95 47.1H86.9V41.7ZM86.85 23.8H108.15V37.75H93.45V44.9H86.9V32.8H101.6V29.05H86.85V23.8ZM92.2 50.7L123 50.7V66.95L92.2 66.95V50.7ZM116.45 55.9H98.7V61.7H116.45V55.9Z" fill="white"/>
<circle cx="256" cy="225" r="124.5" fill="#F27321" stroke="#E96000"/>
<path d="M198.14 163.16C201.94 163.16 205.12 163.52 207.68 164.24C210.28 164.92 212.22 166.06 213.5 167.66C214.82 169.22 215.48 171.34 215.48 174.02C215.48 175.62 215.22 177.08 214.7 178.4C214.18 179.72 213.42 180.8 212.42 181.64C211.46 182.48 210.28 183.02 208.88 183.26V183.56C210.32 183.84 211.62 184.34 212.78 185.06C213.94 185.78 214.86 186.82 215.54 188.18C216.22 189.54 216.56 191.34 216.56 193.58C216.56 196.18 215.92 198.42 214.64 200.3C213.4 202.14 211.6 203.56 209.24 204.56C206.88 205.52 204.08 206 200.84 206H184.82V163.16H198.14ZM199.16 180.14C201.8 180.14 203.62 179.72 204.62 178.88C205.66 178.04 206.18 176.82 206.18 175.22C206.18 173.58 205.58 172.4 204.38 171.68C203.18 170.96 201.28 170.6 198.68 170.6H193.88V180.14H199.16ZM193.88 187.34V198.5H199.82C202.54 198.5 204.44 197.98 205.52 196.94C206.6 195.86 207.14 194.44 207.14 192.68C207.14 191.6 206.9 190.66 206.42 189.86C205.98 189.06 205.2 188.44 204.08 188C202.96 187.56 201.44 187.34 199.52 187.34H193.88ZM264.012 184.52C264.012 187.84 263.592 190.86 262.752 193.58C261.952 196.26 260.712 198.58 259.032 200.54C257.392 202.5 255.272 204 252.672 205.04C250.112 206.08 247.092 206.6 243.612 206.6C240.132 206.6 237.092 206.08 234.492 205.04C231.932 203.96 229.812 202.46 228.132 200.54C226.492 198.58 225.252 196.24 224.412 193.52C223.612 190.8 223.212 187.78 223.212 184.46C223.212 180.02 223.932 176.16 225.372 172.88C226.852 169.6 229.092 167.06 232.092 165.26C235.132 163.42 238.992 162.5 243.672 162.5C248.312 162.5 252.132 163.42 255.132 165.26C258.132 167.06 260.352 169.62 261.792 172.94C263.272 176.22 264.012 180.08 264.012 184.52ZM232.752 184.52C232.752 187.52 233.132 190.1 233.892 192.26C234.652 194.42 235.832 196.08 237.432 197.24C239.032 198.4 241.092 198.98 243.612 198.98C246.212 198.98 248.292 198.4 249.852 197.24C251.452 196.08 252.612 194.42 253.332 192.26C254.092 190.1 254.472 187.52 254.472 184.52C254.472 180 253.632 176.46 251.952 173.9C250.272 171.34 247.512 170.06 243.672 170.06C241.112 170.06 239.032 170.64 237.432 171.8C235.832 172.96 234.652 174.62 233.892 176.78C233.132 178.94 232.752 181.52 232.752 184.52ZM298.146 194.12C298.146 196.64 297.526 198.84 296.286 200.72C295.046 202.6 293.246 204.06 290.886 205.1C288.566 206.1 285.726 206.6 282.366 206.6C280.886 206.6 279.426 206.5 277.986 206.3C276.586 206.1 275.226 205.82 273.906 205.46C272.626 205.06 271.406 204.58 270.246 204.02V195.56C272.286 196.44 274.386 197.26 276.546 198.02C278.746 198.74 280.926 199.1 283.086 199.1C284.566 199.1 285.746 198.9 286.626 198.5C287.546 198.1 288.206 197.56 288.606 196.88C289.046 196.2 289.266 195.42 289.266 194.54C289.266 193.46 288.886 192.54 288.126 191.78C287.406 191.02 286.426 190.32 285.186 189.68C283.946 189 282.526 188.28 280.926 187.52C279.926 187.04 278.846 186.48 277.686 185.84C276.526 185.16 275.406 184.34 274.326 183.38C273.286 182.38 272.426 181.18 271.746 179.78C271.066 178.38 270.726 176.7 270.726 174.74C270.726 172.18 271.306 170 272.466 168.2C273.666 166.36 275.346 164.96 277.506 164C279.706 163.04 282.286 162.56 285.246 162.56C287.486 162.56 289.606 162.82 291.606 163.34C293.646 163.86 295.766 164.6 297.966 165.56L295.026 172.64C293.066 171.84 291.306 171.22 289.746 170.78C288.186 170.34 286.586 170.12 284.946 170.12C283.826 170.12 282.866 170.3 282.066 170.66C281.266 171.02 280.646 171.52 280.206 172.16C279.806 172.8 279.606 173.56 279.606 174.44C279.606 175.44 279.906 176.3 280.506 177.02C281.106 177.7 282.006 178.36 283.206 179C284.406 179.64 285.906 180.4 287.706 181.28C289.906 182.32 291.766 183.4 293.286 184.52C294.846 185.64 296.046 186.96 296.886 188.48C297.726 190 298.146 191.88 298.146 194.12ZM331.193 194.12C331.193 196.64 330.573 198.84 329.333 200.72C328.093 202.6 326.293 204.06 323.933 205.1C321.613 206.1 318.773 206.6 315.413 206.6C313.933 206.6 312.473 206.5 311.033 206.3C309.633 206.1 308.273 205.82 306.953 205.46C305.673 205.06 304.453 204.58 303.293 204.02V195.56C305.333 196.44 307.433 197.26 309.593 198.02C311.793 198.74 313.973 199.1 316.133 199.1C317.613 199.1 318.793 198.9 319.673 198.5C320.593 198.1 321.253 197.56 321.653 196.88C322.093 196.2 322.313 195.42 322.313 194.54C322.313 193.46 321.933 192.54 321.173 191.78C320.453 191.02 319.473 190.32 318.233 189.68C316.993 189 315.573 188.28 313.973 187.52C312.973 187.04 311.893 186.48 310.733 185.84C309.573 185.16 308.453 184.34 307.373 183.38C306.333 182.38 305.473 181.18 304.793 179.78C304.113 178.38 303.773 176.7 303.773 174.74C303.773 172.18 304.353 170 305.513 168.2C306.713 166.36 308.393 164.96 310.553 164C312.753 163.04 315.333 162.56 318.293 162.56C320.533 162.56 322.653 162.82 324.653 163.34C326.693 163.86 328.813 164.6 331.013 165.56L328.073 172.64C326.113 171.84 324.353 171.22 322.793 170.78C321.233 170.34 319.633 170.12 317.993 170.12C316.873 170.12 315.913 170.3 315.113 170.66C314.313 171.02 313.693 171.52 313.253 172.16C312.853 172.8 312.653 173.56 312.653 174.44C312.653 175.44 312.953 176.3 313.553 177.02C314.153 177.7 315.053 178.36 316.253 179C317.453 179.64 318.953 180.4 320.753 181.28C322.953 182.32 324.813 183.4 326.333 184.52C327.893 185.64 329.093 186.96 329.933 188.48C330.773 190 331.193 191.88 331.193 194.12Z" fill="white"/>
<path d="M169.179 272V228.364H186.395C189.705 228.364 192.525 228.996 194.854 230.26C197.184 231.51 198.959 233.25 200.181 235.48C201.417 237.696 202.034 240.253 202.034 243.151C202.034 246.048 201.409 248.605 200.159 250.821C198.909 253.037 197.098 254.763 194.726 255.999C192.368 257.234 189.513 257.852 186.161 257.852H175.188V250.459H184.669C186.445 250.459 187.908 250.153 189.059 249.543C190.223 248.918 191.09 248.058 191.658 246.964C192.24 245.857 192.532 244.585 192.532 243.151C192.532 241.702 192.24 240.437 191.658 239.358C191.09 238.264 190.223 237.419 189.059 236.822C187.894 236.212 186.417 235.906 184.627 235.906H178.405V272H169.179ZM207.857 272V239.273H216.656V244.983H216.997C217.594 242.952 218.595 241.418 220.001 240.381C221.408 239.33 223.027 238.804 224.859 238.804C225.314 238.804 225.804 238.832 226.33 238.889C226.855 238.946 227.317 239.024 227.714 239.124V247.178C227.288 247.05 226.699 246.936 225.946 246.837C225.193 246.737 224.504 246.688 223.879 246.688C222.544 246.688 221.351 246.979 220.3 247.561C219.263 248.129 218.439 248.925 217.828 249.947C217.232 250.97 216.933 252.149 216.933 253.484V272H207.857ZM232.407 272V239.273H241.484V272H232.407ZM236.967 235.054C235.618 235.054 234.46 234.607 233.494 233.712C232.542 232.803 232.066 231.716 232.066 230.452C232.066 229.202 232.542 228.129 233.494 227.234C234.46 226.325 235.618 225.871 236.967 225.871C238.316 225.871 239.467 226.325 240.419 227.234C241.385 228.129 241.868 229.202 241.868 230.452C241.868 231.716 241.385 232.803 240.419 233.712C239.467 234.607 238.316 235.054 236.967 235.054ZM248.755 272V239.273H257.406V245.047H257.789C258.471 243.129 259.607 241.616 261.198 240.509C262.789 239.401 264.692 238.847 266.908 238.847C269.153 238.847 271.063 239.408 272.64 240.53C274.217 241.638 275.268 243.143 275.793 245.047H276.134C276.802 243.172 278.009 241.673 279.756 240.551C281.518 239.415 283.599 238.847 285.999 238.847C289.053 238.847 291.532 239.82 293.435 241.766C295.353 243.697 296.312 246.439 296.312 249.99V272H287.256V251.78C287.256 249.962 286.773 248.598 285.808 247.689C284.842 246.78 283.634 246.325 282.185 246.325C280.538 246.325 279.252 246.851 278.329 247.902C277.406 248.939 276.944 250.31 276.944 252.014V272H268.144V251.588C268.144 249.983 267.683 248.705 266.759 247.753C265.85 246.801 264.65 246.325 263.158 246.325C262.15 246.325 261.241 246.581 260.431 247.092C259.636 247.589 259.004 248.293 258.535 249.202C258.066 250.097 257.832 251.148 257.832 252.355V272H248.755ZM318.396 272.639C315.03 272.639 312.132 271.957 309.703 270.594C307.288 269.216 305.428 267.27 304.121 264.756C302.814 262.227 302.161 259.237 302.161 255.786C302.161 252.419 302.814 249.464 304.121 246.922C305.428 244.379 307.267 242.398 309.639 240.977C312.026 239.557 314.824 238.847 318.034 238.847C320.193 238.847 322.203 239.195 324.064 239.891C325.939 240.572 327.572 241.602 328.964 242.98C330.371 244.358 331.464 246.091 332.246 248.179C333.027 250.253 333.418 252.682 333.418 255.466V257.959H305.783V252.334H324.874C324.874 251.027 324.589 249.869 324.021 248.861C323.453 247.852 322.665 247.064 321.656 246.496C320.662 245.913 319.504 245.622 318.183 245.622C316.805 245.622 315.584 245.942 314.518 246.581C313.467 247.206 312.643 248.051 312.047 249.116C311.45 250.168 311.145 251.339 311.131 252.632V257.98C311.131 259.599 311.429 260.999 312.026 262.178C312.636 263.357 313.496 264.266 314.604 264.905C315.712 265.544 317.026 265.864 318.545 265.864C319.554 265.864 320.477 265.722 321.315 265.438C322.153 265.153 322.871 264.727 323.467 264.159C324.064 263.591 324.518 262.895 324.831 262.071L333.226 262.625C332.8 264.642 331.926 266.403 330.605 267.909C329.298 269.401 327.608 270.565 325.534 271.403C323.474 272.227 321.095 272.639 318.396 272.639Z" fill="white"/>
<path d="M346.457 248.776V229.472H351.955V248.776H346.457ZM339.107 241.872V236.396H359.22V241.872H339.107Z" fill="#1B2FE7"/>
</svg>
