<svg width="16" height="17" viewBox="0 0 16 17" fill="none" xmlns="http://www.w3.org/2000/svg">
<path d="M7.53375 0.929688C6.21984 0.929903 4.92881 1.2753 3.78879 1.93161C2.64877 2.58792 1.69938 3.53232 1.03483 4.6711C0.370275 5.80989 0.0136665 7.10347 0.000385057 8.42348C-0.0128964 9.74349 0.317612 11.044 0.959113 12.1961L0.309036 14.4746C0.255952 14.6529 0.251877 14.8424 0.297244 15.0228C0.342612 15.2033 0.43573 15.3681 0.566731 15.4997C0.697733 15.6313 0.861736 15.7249 1.04136 15.7704C1.22098 15.816 1.40953 15.8119 1.58703 15.7586L3.85491 15.1055C4.8598 15.6707 5.98028 15.997 7.13028 16.0593C8.28027 16.1216 9.42918 15.9183 10.4887 15.4648C11.5483 15.0114 12.4903 14.32 13.2424 13.4437C13.9945 12.5674 14.5366 11.5296 14.8272 10.41C15.1177 9.29034 15.149 8.11869 14.9185 6.98503C14.688 5.85136 14.202 4.78586 13.4977 3.87039C12.7934 2.95491 11.8896 2.21381 10.8557 1.70403C9.82184 1.19425 8.68542 0.929351 7.53375 0.929688ZM7.53375 15.1797C6.33996 15.183 5.16779 14.8598 4.14301 14.2445C4.07247 14.2067 3.99396 14.1864 3.91401 14.1852C3.87402 14.1822 3.83384 14.1872 3.79581 14.2L1.34325 14.9051C1.31758 14.913 1.29024 14.9138 1.26417 14.9073C1.2381 14.9008 1.21429 14.8873 1.1953 14.8682C1.17631 14.8491 1.16285 14.8252 1.15638 14.799C1.14991 14.7728 1.15066 14.7453 1.15857 14.7195L1.86036 12.2555C1.87692 12.1973 1.88154 12.1364 1.87392 12.0765C1.8663 12.0165 1.8466 11.9587 1.81603 11.9066C1.06791 10.6389 0.758089 9.15822 0.934838 7.69516C1.11159 6.23211 1.76498 4.86886 2.79323 3.81776C3.82149 2.76666 5.16688 2.08673 6.61983 1.88389C8.07278 1.68104 9.55172 1.96666 10.8263 2.69626C12.1008 3.42586 13.0994 4.55848 13.6665 5.91768C14.2336 7.27688 14.3374 8.78636 13.9616 10.211C13.5859 11.6356 12.7517 12.8954 11.5891 13.7941C10.4265 14.6928 9.00067 15.1799 7.53375 15.1797ZM4.7266 8.5C4.7266 8.64679 4.68328 8.79029 4.60211 8.91234C4.52094 9.03439 4.40556 9.12952 4.27058 9.18569C4.13559 9.24187 3.98706 9.25657 3.84376 9.22793C3.70046 9.19929 3.56884 9.1286 3.46552 9.02481C3.36221 8.92101 3.29185 8.78876 3.26335 8.64479C3.23485 8.50082 3.24948 8.3516 3.30539 8.21598C3.3613 8.08036 3.45599 7.96445 3.57747 7.88289C3.69895 7.80134 3.84177 7.75781 3.98788 7.75781C4.1838 7.75781 4.3717 7.83601 4.51024 7.9752C4.64877 8.11438 4.7266 8.30316 4.7266 8.5ZM8.27248 8.5C8.27248 8.64679 8.22915 8.79029 8.14798 8.91234C8.06681 9.03439 7.95144 9.12952 7.81645 9.18569C7.68147 9.24187 7.53294 9.25657 7.38964 9.22793C7.24634 9.19929 7.11471 9.1286 7.0114 9.02481C6.90809 8.92101 6.83773 8.78876 6.80923 8.64479C6.78072 8.50082 6.79535 8.3516 6.85126 8.21598C6.90718 8.08036 7.00186 7.96445 7.12334 7.88289C7.24482 7.80134 7.38765 7.75781 7.53375 7.75781C7.72968 7.75781 7.91757 7.83601 8.05611 7.9752C8.19465 8.11438 8.27248 8.30316 8.27248 8.5ZM11.8184 8.5C11.8184 8.64679 11.775 8.79029 11.6939 8.91234C11.6127 9.03439 11.4973 9.12952 11.3623 9.18569C11.2273 9.24187 11.0788 9.25657 10.9355 9.22793C10.7922 9.19929 10.6606 9.1286 10.5573 9.02481C10.454 8.92101 10.3836 8.78876 10.3551 8.64479C10.3266 8.50082 10.3412 8.3516 10.3971 8.21598C10.453 8.08036 10.5477 7.96445 10.6692 7.88289C10.7907 7.80134 10.9335 7.75781 11.0796 7.75781C11.2755 7.75781 11.4634 7.83601 11.602 7.9752C11.7405 8.11438 11.8184 8.30316 11.8184 8.5Z" fill="#9B9B9A"/>
<path d="M13.5034 2.5C13.5034 3.60678 12.611 4.5 11.5151 4.5C10.4191 4.5 9.52673 3.60678 9.52673 2.5C9.52673 1.39322 10.4191 0.5 11.5151 0.5C12.611 0.5 13.5034 1.39322 13.5034 2.5Z" fill="#EC1D24" stroke="white"/>
</svg>
