<svg width="20" height="20" viewBox="0 0 20 20" fill="none" xmlns="http://www.w3.org/2000/svg">
<g filter="url(#filter0_d_1074_6342)">
<path d="M6.80941 9.90872L5.94199 16.4701C5.88707 16.8856 6.33691 17.1802 6.69581 16.9639L9.69487 15.156C9.85365 15.0603 10.0524 15.0603 10.2111 15.156L13.2104 16.964C13.5692 17.1803 14.0191 16.8857 13.9642 16.4703L13.0966 9.90039" fill="#FF000D"/>
</g>
<g filter="url(#filter1_d_1074_6342)">
<path d="M9.95366 14.1667C13.1603 14.1667 15.7598 11.555 15.7598 8.33333C15.7598 5.11167 13.1603 2.5 9.95366 2.5C6.74704 2.5 4.14755 5.11167 4.14755 8.33333C4.14755 11.555 6.74704 14.1667 9.95366 14.1667Z" fill="#FFC737"/>
</g>
<defs>
<filter id="filter0_d_1074_6342" x="3.93741" y="7.90039" width="12.0314" height="11.1367" filterUnits="userSpaceOnUse" color-interpolation-filters="sRGB">
<feFlood flood-opacity="0" result="BackgroundImageFix"/>
<feColorMatrix in="SourceAlpha" type="matrix" values="0 0 0 0 0 0 0 0 0 0 0 0 0 0 0 0 0 0 127 0" result="hardAlpha"/>
<feOffset/>
<feGaussianBlur stdDeviation="1"/>
<feComposite in2="hardAlpha" operator="out"/>
<feColorMatrix type="matrix" values="0 0 0 0 0 0 0 0 0 0 0 0 0 0 0 0 0 0 0.25 0"/>
<feBlend mode="normal" in2="BackgroundImageFix" result="effect1_dropShadow_1074_6342"/>
<feBlend mode="normal" in="SourceGraphic" in2="effect1_dropShadow_1074_6342" result="shape"/>
</filter>
<filter id="filter1_d_1074_6342" x="2.14755" y="0.5" width="15.6122" height="15.667" filterUnits="userSpaceOnUse" color-interpolation-filters="sRGB">
<feFlood flood-opacity="0" result="BackgroundImageFix"/>
<feColorMatrix in="SourceAlpha" type="matrix" values="0 0 0 0 0 0 0 0 0 0 0 0 0 0 0 0 0 0 127 0" result="hardAlpha"/>
<feOffset/>
<feGaussianBlur stdDeviation="1"/>
<feComposite in2="hardAlpha" operator="out"/>
<feColorMatrix type="matrix" values="0 0 0 0 0 0 0 0 0 0 0 0 0 0 0 0 0 0 0.25 0"/>
<feBlend mode="normal" in2="BackgroundImageFix" result="effect1_dropShadow_1074_6342"/>
<feBlend mode="normal" in="SourceGraphic" in2="effect1_dropShadow_1074_6342" result="shape"/>
</filter>
</defs>
</svg>
