<svg width="14" height="14" viewBox="0 0 14 14" fill="none" xmlns="http://www.w3.org/2000/svg">
<path d="M10.2308 11.6113V1.69231C10.2302 1.50886 10.1571 1.33308 10.0274 1.20336C9.89769 1.07364 9.72191 1.00053 9.53846 1H1.69231C1.50886 1.00053 1.33308 1.07364 1.20336 1.20336C1.07364 1.33308 1.00053 1.50886 1 1.69231V11.8462C1.00091 12.1519 1.12277 12.4448 1.33896 12.661C1.55515 12.8772 1.84811 12.9991 2.15385 13H11.6154" fill="white"/>
<path d="M10.2308 11.6113V1.69231C10.2302 1.50886 10.1571 1.33308 10.0274 1.20336C9.89769 1.07364 9.72191 1.00053 9.53846 1H1.69231C1.50886 1.00053 1.33308 1.07364 1.20336 1.20336C1.07364 1.33308 1.00053 1.50886 1 1.69231V11.8462C1.00091 12.1519 1.12277 12.4448 1.33896 12.661C1.55515 12.8772 1.84811 12.9991 2.15385 13H11.6154" stroke="black" stroke-opacity="0.5" stroke-width="1.3" stroke-linejoin="round"/>
<path d="M11.6154 12.9999C11.2482 12.9999 10.896 12.854 10.6363 12.5944C10.3766 12.3347 10.2308 11.9825 10.2308 11.6153V3.30762H12.3077C12.4913 3.30762 12.6674 3.38056 12.7972 3.51039C12.9271 3.64022 13 3.81631 13 3.99992V11.6153C13 11.9825 12.8541 12.3347 12.5945 12.5944C12.3348 12.854 11.9826 12.9999 11.6154 12.9999Z" fill="white" stroke="black" stroke-opacity="0.5" stroke-width="1.3" stroke-linejoin="round"/>
<path d="M6.53846 3.30762H8.38461H6.53846ZM6.53846 5.15377H8.38461H6.53846ZM2.84615 6.99992H8.38461H2.84615ZM2.84615 8.84608H8.38461H2.84615ZM2.84615 10.6922H8.38461H2.84615Z" fill="white"/>
<path d="M6.53846 3.30762H8.38461M6.53846 5.15377H8.38461M2.84615 6.99992H8.38461M2.84615 8.84608H8.38461M2.84615 10.6922H8.38461" stroke="black" stroke-opacity="0.5" stroke-linecap="round" stroke-linejoin="round"/>
<path d="M4.69231 5.61493H2.84615C2.72374 5.61493 2.60635 5.56631 2.51979 5.47975C2.43324 5.3932 2.38461 5.2758 2.38461 5.1534V3.30724C2.38461 3.18483 2.43324 3.06744 2.51979 2.98088C2.60635 2.89433 2.72374 2.8457 2.84615 2.8457H4.69231C4.81471 2.8457 4.93211 2.89433 5.01866 2.98088C5.10522 3.06744 5.15384 3.18483 5.15384 3.30724V5.1534C5.15384 5.2758 5.10522 5.3932 5.01866 5.47975C4.93211 5.56631 4.81471 5.61493 4.69231 5.61493Z" fill="white"/>
</svg>
