<svg width="31" height="31" viewBox="0 0 31 31" fill="none" xmlns="http://www.w3.org/2000/svg">
<circle cx="15.5" cy="15.5" r="15.5" fill="white"/>
<circle cx="15.5" cy="15.5" r="15" stroke="#FFC737" stroke-opacity="0.5" stroke-dasharray="2 2"/>
<circle cx="15.5" cy="15.5" r="12" fill="#CFCFCF" stroke="#CFCFCF"/>
<path d="M20.568 22H17.496L12.52 13.36H12.456C12.4667 13.6267 12.4773 13.8987 12.488 14.176C12.4987 14.4427 12.5093 14.7147 12.52 14.992C12.5413 15.2587 12.5573 15.5307 12.568 15.808C12.5787 16.0747 12.5893 16.3467 12.6 16.624V22H10.44V10.576H13.496L18.456 19.136H18.504C18.4933 18.8693 18.4827 18.608 18.472 18.352C18.4613 18.0853 18.4507 17.824 18.44 17.568C18.44 17.3013 18.4347 17.04 18.424 16.784C18.4133 16.5173 18.4027 16.2507 18.392 15.984V10.576H20.568V22Z" fill="white"/>
</svg>
