<svg width="12" height="11" viewBox="0 0 12 11" fill="none" xmlns="http://www.w3.org/2000/svg">
<g clip-path="url(#clip0_1074_6406)">
<path d="M10.1078 1.44573C10.0832 1.41961 10.0601 1.39288 10.0345 1.36735C9.15526 0.487775 7.96668 0.249937 7.38049 0.836123L1.00992 7.20669L2.67839 8.87516L10.1078 1.44573Z" fill="#99AAB5"/>
<path d="M3.66429 7.7374C2.78501 6.85782 1.59642 6.61998 1.00993 7.20647C0.423446 7.79295 0.661284 8.98124 1.54086 9.86052C2.42044 10.7404 3.60873 10.9779 4.19522 10.3918C4.7814 9.80526 4.54387 8.61698 3.66429 7.7374Z" fill="#66757F"/>
<path d="M10.1081 1.44577C10.9255 2.31604 11.1348 3.45237 10.5655 4.02144L4.1952 10.392C4.78168 9.80552 4.54385 8.61754 3.66427 7.73766L2.4964 6.56979L8.86667 0.199219L10.1105 1.44306L10.1081 1.44577Z" fill="#CCD6DD"/>
<path d="M10.5327 1.02114C11.3501 1.89141 11.5598 3.02775 10.9901 3.59682L4.61982 9.96709C5.2063 9.3809 4.96877 8.19261 4.08889 7.31303L3.34564 6.56979L9.71591 0.199219L10.5351 1.01844L10.5327 1.02114Z" fill="#E1E8ED"/>
<path d="M1.25827 7.53534C0.837253 7.95606 1.00662 8.84795 1.64296 9.56507C2.21833 10.2131 3.12854 10.7687 3.80092 10.2026C4.02975 10.0125 4.15017 9.72003 4.14536 9.38129C4.13695 8.78849 3.75557 8.12243 3.15047 7.64255C3.10353 7.60576 3.04399 7.58895 2.98475 7.59575C2.92551 7.60255 2.87133 7.63242 2.83395 7.67889C2.81556 7.70207 2.80192 7.72865 2.79381 7.75711C2.7857 7.78556 2.78328 7.81534 2.78668 7.84473C2.79008 7.87413 2.79925 7.90256 2.81364 7.92842C2.82804 7.95427 2.84739 7.97703 2.87059 7.9954C3.36518 8.38729 3.6886 8.93414 3.69521 9.38819C3.69731 9.53054 3.66668 9.72753 3.51143 9.85846C3.05677 10.2407 2.33515 9.66597 1.9802 9.26657C1.47689 8.69961 1.36368 8.06717 1.57689 7.85396C1.63215 7.7987 1.70062 7.78459 1.7856 7.80982C2.04896 7.88849 2.3862 8.30891 2.54656 9.07258C2.55246 9.1017 2.56406 9.12936 2.58069 9.15398C2.59732 9.1786 2.61866 9.19968 2.64348 9.21602C2.6683 9.23235 2.6961 9.24362 2.72529 9.24916C2.75448 9.2547 2.78448 9.25441 2.81356 9.24831C2.84263 9.24221 2.87022 9.23042 2.89472 9.21361C2.91922 9.1968 2.94015 9.17532 2.95631 9.15038C2.97247 9.12545 2.98353 9.09757 2.98887 9.06834C2.99421 9.03911 2.99371 9.00912 2.9874 8.98009C2.81053 8.13624 2.39942 7.52273 1.91443 7.37798C1.67029 7.30501 1.43125 7.36267 1.25827 7.53534ZM9.13275 1.31402C9.11037 1.33631 9.09292 1.36307 9.08156 1.39254C9.07019 1.42202 9.06515 1.45355 9.06676 1.4851C9.06837 1.51665 9.07661 1.54751 9.09093 1.57567C9.10524 1.60383 9.12532 1.62866 9.14987 1.64855C9.15917 1.65576 10.0808 2.41102 10.1279 3.3951C10.1331 3.45311 10.1605 3.50686 10.2045 3.54511C10.2484 3.58336 10.3054 3.60314 10.3635 3.60031C10.4217 3.59748 10.4765 3.57225 10.5165 3.52992C10.5565 3.48758 10.5786 3.43141 10.5781 3.37318C10.521 2.18399 9.47659 1.33294 9.43215 1.2975C9.389 1.26283 9.33455 1.24534 9.27928 1.24839C9.22401 1.25144 9.17182 1.27481 9.13275 1.31402ZM8.49551 1.95096C8.47318 1.97332 8.4558 2.00012 8.44448 2.02963C8.43316 2.05913 8.42816 2.09069 8.4298 2.12225C8.43144 2.15381 8.43969 2.18467 8.45401 2.21284C8.46833 2.24101 8.4884 2.26587 8.51293 2.28579C8.52224 2.293 9.44386 3.04825 9.49101 4.03234C9.49391 4.09203 9.52041 4.14813 9.56468 4.18828C9.60895 4.22843 9.66735 4.24936 9.72704 4.24645C9.78674 4.24355 9.84283 4.21704 9.88298 4.17278C9.92314 4.12851 9.94406 4.07011 9.94116 4.01042C9.8838 2.82123 8.83966 1.97018 8.79521 1.93474C8.75208 1.89995 8.69759 1.88235 8.64225 1.88534C8.58691 1.88834 8.53464 1.91171 8.49551 1.95096ZM5.94716 4.49931C5.94176 4.50501 5.93605 4.51072 5.93095 4.51702C5.91235 4.54003 5.89846 4.56648 5.89008 4.59485C5.88171 4.62323 5.879 4.65298 5.88212 4.6824C5.88525 4.71182 5.89414 4.74034 5.90829 4.76632C5.92243 4.79231 5.94156 4.81525 5.96458 4.83384C5.97389 4.84105 6.89551 5.5963 6.94266 6.58039C6.94557 6.64008 6.97207 6.69617 7.01633 6.73633C7.0606 6.77648 7.119 6.79741 7.17869 6.7945C7.23839 6.79159 7.29448 6.76509 7.33464 6.72083C7.37479 6.67656 7.39572 6.61816 7.39281 6.55846C7.33545 5.36958 6.29131 4.51822 6.24686 4.48279C6.20369 4.44803 6.14918 4.43049 6.09384 4.43354C6.0385 4.43659 5.98625 4.46002 5.94716 4.49931ZM4.46098 5.98549C4.43867 6.00786 4.4213 6.03465 4.40999 6.06414C4.39867 6.09363 4.39365 6.12516 4.39527 6.15671C4.39688 6.18825 4.40508 6.21911 4.41935 6.24729C4.43361 6.27547 4.45363 6.30035 4.47809 6.32033C4.4877 6.32753 5.40902 7.08279 5.45617 8.06687C5.45912 8.12657 5.48566 8.18264 5.52995 8.22277C5.57424 8.2629 5.63266 8.28378 5.69236 8.28084C5.75205 8.27789 5.80813 8.25135 5.84826 8.20706C5.88838 8.16276 5.90927 8.10434 5.90632 8.04465C5.84896 6.85576 4.80512 6.00471 4.76038 5.96898C4.71723 5.9343 4.66278 5.91681 4.60751 5.91986C4.55224 5.92291 4.50005 5.94628 4.46098 5.98549Z" fill="#99AAB5"/>
<path d="M8.03454 5.89464C8.42373 5.48984 9.08258 4.87872 9.16246 4.79524C9.34655 4.60245 8.6997 3.152 8.17087 2.73698C8.05496 2.64599 7.91292 2.71957 7.85195 2.78203C7.48668 3.15596 7.11861 3.52714 6.74775 3.89554C6.67838 3.96491 6.63814 4.09104 6.73604 4.18143C7.05646 4.47692 7.63274 5.20966 7.7955 5.88203C7.81472 5.96041 7.95406 5.97902 8.03454 5.89464Z" fill="#5DADEC"/>
</g>
<defs>
<clipPath id="clip0_1074_6406">
<rect width="10.8108" height="10.8108" fill="white" transform="translate(0.594604 0.0273438)"/>
</clipPath>
</defs>
</svg>
