<svg width="31" height="31" viewBox="0 0 31 31" fill="none" xmlns="http://www.w3.org/2000/svg">
<circle cx="15.5" cy="15.5" r="15.5" fill="white"/>
<circle cx="15.5" cy="15.5" r="15" stroke="#EC1D24" stroke-opacity="0.37" stroke-dasharray="2 2"/>
<circle cx="15.5" cy="15.5" r="12" fill="#F50A0A" stroke="#EC1D24"/>
<path d="M20.9 10.576L17.012 22H14.372L10.5 10.576H12.948L15.092 17.376C15.1347 17.4933 15.1933 17.712 15.268 18.032C15.3533 18.3413 15.4387 18.672 15.524 19.024C15.6093 19.3653 15.668 19.6533 15.7 19.888C15.732 19.6533 15.7853 19.3653 15.86 19.024C15.9453 18.672 16.0307 18.3413 16.116 18.032C16.2013 17.712 16.26 17.4933 16.292 17.376L18.452 10.576H20.9Z" fill="white"/>
</svg>
