<svg width="40" height="40" viewBox="0 0 40 40" fill="none" xmlns="http://www.w3.org/2000/svg">
<rect x="39.85" y="39.85" width="39.7" height="39.7" rx="6.85" transform="rotate(180 39.85 39.85)" fill="white" stroke="#9B9B9A" stroke-width="0.3"/>
<line x1="5" y1="31.85" x2="36" y2="31.85" stroke="black" stroke-width="0.3" stroke-dasharray="3 3"/>
<line x1="4.91868" y1="26.874" x2="35.9187" y2="6.87396" stroke="black" stroke-width="0.3" stroke-dasharray="3 3"/>
<circle cx="1.5" cy="1.5" r="1.35" transform="matrix(1 0 0 -1 12 33)" fill="white" stroke="black" stroke-width="0.3"/>
<circle cx="1.5" cy="1.5" r="1.35" transform="matrix(1 0 0 -1 26 33)" fill="white" stroke="black" stroke-width="0.3"/>
<circle cx="1.5" cy="1.5" r="1.35" transform="matrix(1 0 0 -1 6 26.5)" fill="white" stroke="black" stroke-width="0.3"/>
<circle cx="1.5" cy="1.5" r="1.35" transform="matrix(1 0 0 -1 19 18)" fill="white" stroke="black" stroke-width="0.3"/>
<circle cx="1.5" cy="1.5" r="1.35" transform="matrix(1 0 0 -1 32 9.5)" fill="#F27321" stroke="white" stroke-width="0.3"/>
<path d="M8.5 26L13.5 30L20.5 18L27.5 30L33.5 9.5" stroke="black" stroke-width="0.3"/>
</svg>
