<svg width="40" height="40" viewBox="0 0 40 40" fill="none" xmlns="http://www.w3.org/2000/svg">
<path d="M33 39.85H7C3.21685 39.85 0.150002 36.7832 0.150002 33V7C0.150002 3.21685 3.21685 0.150002 7 0.150002H33C36.7831 0.150002 39.85 3.21685 39.85 7V33C39.85 36.7831 36.7832 39.85 33 39.85Z" fill="#F2F2F2" stroke="#9B9B9A" stroke-width="0.3"/>
<path d="M24.8058 32.3499L8.00005 7.18122" stroke="#8497B0" stroke-width="0.7"/>
<path d="M6.24731 26.4567C5.9951 25.7648 6.3515 24.9995 7.04335 24.7473C7.73519 24.4951 8.50049 24.8515 8.75269 25.5433C9.0049 26.2352 8.6485 27.0005 7.95665 27.2527C7.26481 27.5049 6.49951 27.1485 6.24731 26.4567ZM22.6783 28.8064L22.8156 29.0153L22.6783 28.8064ZM33 9.00015L33.7007 11.8006L30.9251 11.0072L33 9.00015ZM7.5 26C7.62716 25.7848 7.62715 25.7848 7.62715 25.7847C7.62715 25.7847 7.62715 25.7847 7.62715 25.7847C7.62714 25.7847 7.62714 25.7847 7.62714 25.7847C7.62714 25.7847 7.62715 25.7847 7.62716 25.7848C7.62719 25.7848 7.62724 25.7848 7.62732 25.7849C7.62749 25.7849 7.62776 25.7851 7.62813 25.7853C7.62888 25.7858 7.63005 25.7865 7.63164 25.7874C7.63483 25.7893 7.6397 25.7921 7.64621 25.7959C7.65923 25.8035 7.67883 25.8149 7.70475 25.8298C7.75658 25.8595 7.83366 25.9034 7.93383 25.9592L7.69054 26.396C7.58833 26.3391 7.50932 26.2941 7.45566 26.2633C7.42882 26.2479 7.40833 26.236 7.39443 26.2279C7.38749 26.2238 7.38219 26.2207 7.37858 26.2186C7.37678 26.2176 7.37539 26.2168 7.37444 26.2162C7.37396 26.2159 7.37358 26.2157 7.37332 26.2155C7.37318 26.2154 7.37308 26.2154 7.373 26.2153C7.37296 26.2153 7.37293 26.2153 7.3729 26.2153C7.37289 26.2153 7.37287 26.2153 7.37287 26.2153C7.37286 26.2153 7.37285 26.2153 7.37285 26.2153C7.37285 26.2152 7.37284 26.2152 7.5 26ZM8.57527 26.3058C8.76573 26.406 8.98146 26.5171 9.21932 26.6362L8.99551 27.0833C8.75449 26.9627 8.53579 26.85 8.34258 26.7484L8.57527 26.3058ZM9.87038 26.9543C10.0795 27.054 10.2999 27.1568 10.5303 27.2613L10.3239 27.7167C10.0904 27.6108 9.86698 27.5067 9.65516 27.4056L9.87038 26.9543ZM11.1941 27.5545C11.4108 27.6475 11.634 27.7409 11.8628 27.8337L11.675 28.2971C11.4428 28.2029 11.2164 28.1082 10.9967 28.0138L11.1941 27.5545ZM12.5382 28.0988C12.7614 28.1836 12.9887 28.267 13.2193 28.3483L13.053 28.8199C12.8184 28.7371 12.5874 28.6524 12.3607 28.5663L12.5382 28.0988ZM13.9058 28.5805C14.1341 28.6544 14.3647 28.7256 14.597 28.7934L14.4568 29.2734C14.2196 29.2041 13.9844 29.1315 13.7519 29.0562L13.9058 28.5805ZM15.2937 28.9853C15.5271 29.0455 15.7613 29.1017 15.9958 29.1534L15.8882 29.6417C15.6476 29.5887 15.4076 29.531 15.1688 29.4694L15.2937 28.9853ZM16.7025 29.2944C16.9402 29.3368 17.1773 29.3737 17.4131 29.4045L17.3483 29.9003C17.1043 29.8684 16.8596 29.8303 16.6148 29.7867L16.7025 29.2944ZM18.1262 29.4789C18.3664 29.4973 18.6044 29.5085 18.8395 29.5117L18.8326 30.0117C18.5864 30.0082 18.3379 29.9966 18.088 29.9774L18.1262 29.4789ZM19.5523 29.496C19.7919 29.4816 20.0273 29.4577 20.2576 29.4235L20.331 29.9181C20.0853 29.9546 19.8354 29.9799 19.5822 29.9951L19.5523 29.496ZM20.948 29.2854C21.1769 29.2268 21.3992 29.1561 21.614 29.0725L21.7953 29.5385C21.5606 29.6298 21.3191 29.7065 21.072 29.7697L20.948 29.2854ZM22.2442 28.7773C22.3453 28.721 22.4443 28.6611 22.541 28.5975L22.8156 29.0153C22.7085 29.0857 22.599 29.152 22.4874 29.2141L22.2442 28.7773ZM22.541 28.5975C22.6339 28.5364 22.7265 28.4722 22.8189 28.4049L23.1133 28.8091C23.0147 28.8809 22.9155 28.9497 22.8156 29.0153L22.541 28.5975ZM23.3566 27.9768C23.5267 27.8299 23.6957 27.6731 23.8636 27.507L24.2153 27.8624C24.04 28.0358 23.8627 28.2004 23.6834 28.3552L23.3566 27.9768ZM24.343 27.0046C24.4959 26.8356 24.6475 26.6593 24.7979 26.4764L25.1841 26.794C25.0291 26.9825 24.8724 27.1647 24.714 27.3399L24.343 27.0046ZM25.231 25.9273C25.3701 25.7437 25.508 25.5548 25.6446 25.361L26.0532 25.6492C25.9135 25.8473 25.7723 26.0408 25.6295 26.2293L25.231 25.9273ZM26.0392 24.7831C26.1667 24.5903 26.293 24.3936 26.418 24.1935L26.8421 24.4584C26.7149 24.662 26.5863 24.8624 26.4562 25.059L26.0392 24.7831ZM26.7831 23.5933C26.9019 23.3929 27.0194 23.1897 27.1355 22.9841L27.5709 23.23C27.4531 23.4385 27.3338 23.6448 27.2132 23.8483L26.7831 23.5933ZM27.4761 22.3674C27.5871 22.162 27.6967 21.9547 27.805 21.7459L28.2489 21.976C28.1394 22.1872 28.0284 22.3971 27.916 22.6051L27.4761 22.3674ZM28.1242 21.1179C28.229 20.9078 28.3324 20.6967 28.4343 20.4847L28.8849 20.7014C28.782 20.9154 28.6776 21.1287 28.5717 21.341L28.1242 21.1179ZM28.7354 19.8474C28.8346 19.6338 28.9324 19.4198 29.0286 19.2058L29.4846 19.4108C29.3876 19.6266 29.289 19.8425 29.1889 20.0581L28.7354 19.8474ZM29.3142 18.5602C29.4086 18.3435 29.5014 18.1272 29.5925 17.9116L30.053 18.1063C29.9612 18.3235 29.8678 18.5415 29.7726 18.7599L29.3142 18.5602ZM29.8636 17.261C29.9536 17.0416 30.0419 16.8234 30.1284 16.6068L30.5928 16.7922C30.5057 17.0102 30.4168 17.2299 30.3261 17.4509L29.8636 17.261ZM30.3876 15.9486C30.474 15.7261 30.5584 15.5059 30.6407 15.2885L31.1083 15.4654C31.0256 15.6842 30.9407 15.9058 30.8537 16.1297L30.3876 15.9486ZM30.8877 14.6268C30.9706 14.4018 31.051 14.1805 31.1289 13.9635L31.5995 14.1325C31.5211 14.3507 31.4402 14.5733 31.3568 14.7996L30.8877 14.6268ZM31.3646 13.2985C31.4445 13.0699 31.5214 12.8472 31.595 12.6312L32.0683 12.7925C31.9942 13.0097 31.917 13.2337 31.8365 13.4636L31.3646 13.2985ZM31.8205 11.961C31.8985 11.7258 31.9721 11.501 32.041 11.2877L32.5168 11.4414C32.4475 11.6559 32.3735 11.882 32.295 12.1185L31.8205 11.961ZM32.2555 10.6137C32.3331 10.3662 32.4022 10.1417 32.4625 9.94324L32.9409 10.0885C32.8802 10.2883 32.8107 10.5143 32.7326 10.7633L32.2555 10.6137Z" fill="#F50A0A"/>
<circle cx="22.5" cy="28.5" r="1.35" transform="rotate(180 22.5 28.5)" fill="#F27321" stroke="white" stroke-width="0.3"/>
</svg>
