<svg width="40" height="40" viewBox="0 0 40 40" fill="none" xmlns="http://www.w3.org/2000/svg">
<rect x="39.85" y="39.85" width="39.7" height="39.7" rx="6.85" transform="rotate(180 39.85 39.85)" fill="white" stroke="#9B9B9A" stroke-width="0.3"/>
<path d="M35.1257 17.3268L7 28.5" stroke="black" stroke-width="0.7"/>
<path d="M4.66667 18.7278C4.66667 19.4642 5.26362 20.0611 6 20.0611C6.73638 20.0611 7.33333 19.4642 7.33333 18.7278C7.33333 17.9914 6.73638 17.3945 6 17.3945C5.26362 17.3945 4.66667 17.9914 4.66667 18.7278ZM20.5 14.2278L20.5612 13.9854L20.5 14.2278ZM32 30L32.5539 27.1669L29.8234 28.1038L32 30ZM6 18.7278C6.14057 18.9345 6.14057 18.9346 6.14057 18.9346C6.14056 18.9346 6.14056 18.9346 6.14056 18.9346C6.14056 18.9346 6.14056 18.9346 6.14056 18.9346C6.14056 18.9346 6.14056 18.9346 6.14057 18.9345C6.1406 18.9345 6.14065 18.9345 6.14072 18.9344C6.14087 18.9343 6.14112 18.9342 6.14147 18.9339C6.14216 18.9335 6.14324 18.9327 6.14471 18.9317C6.14766 18.9298 6.15216 18.9267 6.15819 18.9227C6.17024 18.9146 6.1884 18.9024 6.21244 18.8865C6.26052 18.8546 6.3321 18.8076 6.42535 18.7475L6.1545 18.3272C6.05936 18.3885 5.98598 18.4367 5.93619 18.4697C5.9113 18.4862 5.8923 18.4989 5.87943 18.5076C5.87299 18.5119 5.86809 18.5152 5.86475 18.5175C5.86308 18.5186 5.86179 18.5195 5.86091 18.5201C5.86046 18.5204 5.86012 18.5206 5.85987 18.5208C5.85975 18.5209 5.85965 18.5209 5.85957 18.521C5.85954 18.521 5.85951 18.521 5.85948 18.521C5.85947 18.5211 5.85946 18.5211 5.85945 18.5211C5.85945 18.5211 5.85944 18.5211 5.85944 18.5211C5.85943 18.5211 5.85943 18.5211 6 18.7278ZM7.02171 18.3734C7.19951 18.2646 7.40134 18.1432 7.62453 18.0124L7.37163 17.581C7.14555 17.7136 6.941 17.8366 6.76065 17.947L7.02171 18.3734ZM8.2323 17.6633C8.42686 17.5539 8.63233 17.4405 8.84756 17.3244L8.61025 16.8843C8.39227 17.0019 8.1842 17.1167 7.98718 17.2275L8.2323 17.6633ZM9.46797 16.9971C9.67099 16.8923 9.88063 16.7865 10.0961 16.6804L9.87528 16.2318C9.65682 16.3393 9.44436 16.4466 9.23868 16.5528L9.46797 16.9971ZM10.7286 16.3766C10.937 16.2791 11.1497 16.1821 11.3662 16.0863L11.1638 15.6291C10.944 15.7264 10.7281 15.8248 10.5167 15.9238L10.7286 16.3766ZM12.0103 15.8097C12.2243 15.7207 12.4412 15.6334 12.6604 15.5484L12.4797 15.0822C12.2565 15.1687 12.0358 15.2576 11.8182 15.3481L12.0103 15.8097ZM13.3165 15.3039C13.5356 15.2256 13.7564 15.1501 13.9784 15.078L13.8239 14.6024C13.597 14.6761 13.3716 14.7532 13.1482 14.8331L13.3165 15.3039ZM14.646 14.8727C14.8699 14.8078 15.0946 14.7469 15.3193 14.6905L15.1976 14.2056C14.9667 14.2635 14.7363 14.326 14.5069 14.3924L14.646 14.8727ZM15.9982 14.5343C16.2267 14.4867 16.4548 14.4444 16.6819 14.4078L16.6024 13.9142C16.3673 13.952 16.1317 13.9958 15.8962 14.0449L15.9982 14.5343ZM17.3692 14.3152C17.6007 14.2902 17.8306 14.2721 18.0583 14.2614L18.0348 13.762C17.7965 13.7732 17.5566 13.7921 17.3157 13.818L17.3692 14.3152ZM18.7467 14.2524C18.9783 14.2576 19.2068 14.2715 19.4316 14.2947L19.483 13.7973C19.2441 13.7726 19.0021 13.758 18.7579 13.7525L18.7467 14.2524ZM20.1076 14.3957C20.2192 14.4179 20.3296 14.4427 20.4388 14.4702L20.5612 13.9854C20.4435 13.9557 20.3247 13.929 20.2049 13.9053L20.1076 14.3957ZM20.4388 14.4702C20.5498 14.4982 20.6603 14.5296 20.7703 14.5642L20.9203 14.0872C20.8014 14.0498 20.6817 14.0158 20.5612 13.9854L20.4388 14.4702ZM21.4183 14.8076C21.6282 14.8992 21.8361 15.0022 22.042 15.1161L22.2839 14.6785C22.0652 14.5576 21.8433 14.4475 21.6183 14.3493L21.4183 14.8076ZM22.639 15.4796C22.8311 15.6073 23.0211 15.744 23.2091 15.8889L23.5145 15.493C23.3178 15.3413 23.1182 15.1978 22.9158 15.0632L22.639 15.4796ZM23.753 16.3363C23.9282 16.4893 24.1013 16.6491 24.2722 16.8151L24.6206 16.4565C24.4437 16.2847 24.2641 16.1188 24.0819 15.9597L23.753 16.3363ZM24.7683 17.3204C24.9287 17.4913 25.0869 17.6674 25.243 17.8479L25.6212 17.5208C25.461 17.3355 25.2982 17.1544 25.1329 16.9783L24.7683 17.3204ZM25.698 18.3941C25.8457 18.5781 25.9913 18.7657 26.1347 18.9564L26.5344 18.6559C26.3879 18.4611 26.2391 18.2693 26.0878 18.081L25.698 18.3941ZM26.5545 19.5323C26.6914 19.7259 26.8261 19.922 26.9585 20.1199L27.3741 19.842C27.2394 19.6406 27.1023 19.4409 26.9627 19.2436L26.5545 19.5323ZM27.3479 20.7179C27.4757 20.9192 27.601 21.1218 27.724 21.3253L28.1519 21.0667C28.0272 20.8602 27.8999 20.6545 27.7701 20.45L27.3479 20.7179ZM28.0875 21.9409C28.2073 22.1486 28.3245 22.3564 28.4391 22.5639L28.8768 22.3222C28.7607 22.1121 28.642 21.9015 28.5206 21.691L28.0875 21.9409ZM28.7795 23.1934C28.8923 23.4063 29.0022 23.6183 29.1092 23.8287L29.5549 23.602C29.4467 23.3893 29.3355 23.1748 29.2214 22.9594L28.7795 23.1934ZM29.4288 24.4693C29.5354 24.6872 29.6387 24.9027 29.7386 25.1149L30.191 24.9018C30.09 24.6875 29.9857 24.4698 29.8779 24.2495L29.4288 24.4693ZM30.0392 25.7652C30.1406 25.9887 30.2379 26.2074 30.3309 26.4202L30.789 26.2199C30.6951 26.0051 30.5969 25.7844 30.4946 25.5587L30.0392 25.7652ZM30.6135 27.0791C30.7104 27.3092 30.8014 27.5301 30.8866 27.7403L31.35 27.5526C31.264 27.3403 31.1721 27.1173 31.0743 26.8851L30.6135 27.0791ZM31.1502 28.4041C31.2464 28.6513 31.3317 28.8763 31.4058 29.0756L31.8745 28.9013C31.7995 28.6998 31.7133 28.4725 31.6162 28.2228L31.1502 28.4041Z" fill="#1B2FE7"/>
<circle cx="27.5" cy="20.5" r="1.35" transform="rotate(180 27.5 20.5)" fill="#F27321" stroke="white" stroke-width="0.3"/>
</svg>
