<svg width="46" height="47" viewBox="0 0 46 47" fill="none" xmlns="http://www.w3.org/2000/svg">
<rect x="45.85" y="46.85" width="39.7" height="39.7" rx="6.85" transform="rotate(180 45.85 46.85)" fill="white" stroke="#9B9B9A" stroke-width="0.3"/>
<line x1="31.3032" y1="14.1749" x2="16.3032" y2="40.1749" stroke="#BFBFBF" stroke-width="0.7" stroke-dasharray="3 3"/>
<line x1="30.2" y1="12" x2="30.2" y2="29" stroke="#655E07" stroke-width="0.4" stroke-dasharray="0.8 0.8"/>
<line x1="38.2278" y1="22.2657" x2="17.2278" y2="40.2657" stroke="black" stroke-width="0.7"/>
<line x1="42.1067" y1="32.3333" x2="17.1067" y2="40.3333" stroke="#BFBFBF" stroke-width="0.7" stroke-dasharray="3 3"/>
<circle cx="30.5" cy="28.5" r="1.35" transform="rotate(180 30.5 28.5)" fill="#F27321" stroke="white" stroke-width="0.3"/>
<rect x="28.15" y="14.15" width="3.7" height="9.7" fill="#D0CECE" stroke="#F50A0A" stroke-width="0.3" stroke-dasharray="0.4 0.4"/>
<circle cx="8" cy="9.5" r="5" fill="#FFD233"/>
<path d="M9.50519 8.122C9.50519 8.35067 9.45852 8.549 9.36519 8.717C9.27186 8.885 9.14819 9.02267 8.99419 9.13C8.84019 9.23733 8.66752 9.31667 8.47619 9.368V9.389C8.84952 9.43567 9.13652 9.557 9.33719 9.753C9.53786 9.949 9.63819 10.2127 9.63819 10.544C9.63819 10.8333 9.57053 11.0947 9.43519 11.328C9.29986 11.5567 9.08986 11.7387 8.80519 11.874C8.52519 12.0047 8.16119 12.07 7.71319 12.07C7.43319 12.07 7.18352 12.0467 6.96419 12C6.74486 11.9533 6.53486 11.8857 6.33419 11.797V10.901C6.53952 11.0083 6.74952 11.09 6.96419 11.146C7.18352 11.202 7.38419 11.23 7.56619 11.23C7.89752 11.23 8.12619 11.1647 8.25219 11.034C8.38286 10.9033 8.44819 10.719 8.44819 10.481C8.44819 10.341 8.41786 10.2243 8.35719 10.131C8.29652 10.033 8.18919 9.96067 8.03519 9.914C7.88586 9.86267 7.66886 9.837 7.38419 9.837H7.06219V9.025H7.39119C7.65719 9.025 7.86252 8.997 8.00719 8.941C8.15186 8.88033 8.25219 8.801 8.30819 8.703C8.36886 8.60033 8.39919 8.48367 8.39919 8.353C8.39919 8.17567 8.35019 8.038 8.25219 7.94C8.15419 7.83733 8.00486 7.786 7.80419 7.786C7.65952 7.786 7.52419 7.807 7.39819 7.849C7.27219 7.88633 7.16019 7.933 7.06219 7.989C6.96886 8.045 6.89186 8.09867 6.83119 8.15L6.34119 7.422C6.46719 7.32867 6.60486 7.24467 6.75419 7.17C6.90819 7.09533 7.08086 7.037 7.27219 6.995C7.46819 6.953 7.68986 6.932 7.93719 6.932C8.42252 6.932 8.80519 7.037 9.08519 7.247C9.36519 7.45233 9.50519 7.744 9.50519 8.122Z" fill="black"/>
</svg>
