<svg width="19" height="19" viewBox="0 0 19 19" fill="none" xmlns="http://www.w3.org/2000/svg">
<path d="M9.49999 1.92969C8.17991 1.9299 6.88283 2.2753 5.73746 2.93161C4.59209 3.58792 3.63825 4.53232 2.97059 5.6711C2.30292 6.80989 1.94464 8.10347 1.9313 9.42348C1.91795 10.7435 2.25001 12.044 2.89452 13.1961L2.24139 15.4746C2.18806 15.6529 2.18397 15.8424 2.22955 16.0228C2.27513 16.2033 2.36868 16.3681 2.5003 16.4997C2.63191 16.6313 2.79668 16.7249 2.97715 16.7704C3.15761 16.816 3.34705 16.8119 3.52538 16.7586L5.80389 16.1055C6.81349 16.6707 7.93923 16.997 9.09462 17.0593C10.25 17.1216 11.4043 16.9183 12.4688 16.4648C13.5333 16.0114 14.4798 15.32 15.2354 14.4437C15.991 13.5674 16.5357 12.5296 16.8276 11.41C17.1195 10.2903 17.1509 9.11869 16.9194 7.98503C16.6878 6.85136 16.1995 5.78586 15.4919 4.87039C14.7843 3.95491 13.8762 3.21381 12.8375 2.70403C11.7988 2.19425 10.6571 1.92935 9.49999 1.92969ZM9.49999 16.1797C8.3006 16.183 7.12293 15.8598 6.09335 15.2445C6.02247 15.2067 5.94359 15.1864 5.86327 15.1852C5.82309 15.1822 5.78273 15.1872 5.74452 15.2L3.28046 15.9051C3.25467 15.913 3.2272 15.9138 3.20101 15.9073C3.17482 15.9008 3.15089 15.8873 3.13181 15.8682C3.11273 15.8491 3.09921 15.8252 3.09271 15.799C3.08621 15.7728 3.08697 15.7453 3.09491 15.7195L3.79999 13.2555C3.81663 13.1973 3.82127 13.1364 3.81361 13.0765C3.80596 13.0165 3.78617 12.9587 3.75546 12.9066C3.00382 11.6389 2.69255 10.1582 2.87013 8.69516C3.04771 7.23211 3.70416 5.86886 4.73724 4.81776C5.77032 3.76666 7.12201 3.08673 8.58178 2.88389C10.0415 2.68104 11.5274 2.96666 12.8079 3.69626C14.0885 4.42586 15.0917 5.55847 15.6615 6.91768C16.2313 8.27688 16.3355 9.78636 15.958 11.211C15.5805 12.6356 14.7424 13.8954 13.5744 14.7941C12.4063 15.6928 10.9738 16.1799 9.49999 16.1797ZM6.67967 9.5C6.67967 9.64679 6.63615 9.79029 6.55459 9.91234C6.47304 10.0344 6.35713 10.1295 6.22151 10.1857C6.08589 10.2419 5.93666 10.2566 5.79269 10.2279C5.64872 10.1993 5.51648 10.1286 5.41268 10.0248C5.30888 9.92101 5.2382 9.78876 5.20956 9.64479C5.18092 9.50082 5.19562 9.3516 5.2518 9.21598C5.30797 9.08036 5.4031 8.96445 5.52515 8.88289C5.6472 8.80134 5.7907 8.75781 5.93749 8.75781C6.13433 8.75781 6.32311 8.83601 6.46229 8.9752C6.60148 9.11438 6.67967 9.30316 6.67967 9.5ZM10.2422 9.5C10.2422 9.64679 10.1986 9.79029 10.1171 9.91234C10.0355 10.0344 9.91963 10.1295 9.78401 10.1857C9.64839 10.2419 9.49916 10.2566 9.35519 10.2279C9.21122 10.1993 9.07898 10.1286 8.97518 10.0248C8.87138 9.92101 8.8007 9.78876 8.77206 9.64479C8.74342 9.50082 8.75812 9.3516 8.8143 9.21598C8.87047 9.08036 8.9656 8.96445 9.08765 8.88289C9.2097 8.80134 9.3532 8.75781 9.49999 8.75781C9.69683 8.75781 9.88561 8.83601 10.0248 8.9752C10.164 9.11438 10.2422 9.30316 10.2422 9.5ZM13.8047 9.5C13.8047 9.64679 13.7611 9.79029 13.6796 9.91234C13.598 10.0344 13.4821 10.1295 13.3465 10.1857C13.2109 10.2419 13.0617 10.2566 12.9177 10.2279C12.7737 10.1993 12.6415 10.1286 12.5377 10.0248C12.4339 9.92101 12.3632 9.78876 12.3346 9.64479C12.3059 9.50082 12.3206 9.3516 12.3768 9.21598C12.433 9.08036 12.5281 8.96445 12.6501 8.88289C12.7722 8.80134 12.9157 8.75781 13.0625 8.75781C13.2593 8.75781 13.4481 8.83601 13.5873 8.9752C13.7265 9.11438 13.8047 9.30316 13.8047 9.5Z" fill="#9B9B9A"/>
<circle cx="14.5" cy="3.5" r="2" fill="white" stroke="#EC1D24"/>
</svg>
